<?xml version="1.0" encoding="utf-8"?>
<!-- Generator: Adobe Illustrator 24.0.0, SVG Export Plug-In . SVG Version: 6.00 Build 0)  -->
<svg version="1.1" xmlns="http://www.w3.org/2000/svg" xmlns:xlink="http://www.w3.org/1999/xlink" x="0px" y="0px"
	 viewBox="0 0 318.3 318.3" style="enable-background:new 0 0 318.3 318.3;" xml:space="preserve">
<style type="text/css">
	.st0{fill:#FFFFFF;stroke:#E6E7E8;stroke-miterlimit:10;}
	.st1{fill:url(#SVGID_1_);}
	.st2{fill:url(#SVGID_2_);}
	.st3{fill:#D31321;}
	.st4{fill:#F1F2F2;}
	.st5{fill:#FF163A;}
	.st6{opacity:0.55;fill:#FFFFFF;}
	.st7{opacity:0.28;fill:#BE1E2D;}
	.st8{fill:none;}
	.st9{fill:#E6E7E8;}
	.st10{font-family:'This-July';}
	.st11{font-size:72px;}
	.st12{font-size:43px;}
	.st13{fill:#FFFFFF;}
	.st14{fill:#414042;}
	.st15{opacity:0.33;}
	.st16{fill:#0D7222;}
</style>
<g id="bg">
	<path class="st0" d="M159.1,256.3c-22.7,0-44.6-7.9-62-22.4l-11.8,11.8c-1.7,1.7-4,2.6-6.4,2.6c-2.4,0-4.7-0.9-6.4-2.6
		c-1.7-1.7-2.6-4-2.6-6.4c0-2.4,0.9-4.7,2.6-6.4l11.5-11.5c-4.6-1.2-8.6-3.9-11.6-7.7c-4.7-6-6.3-13.5-4.9-22
		c-1.2-3.4-2.2-6.9-3.1-10.4c-1.3,0.9-2.7,1.7-4.1,2.3l-0.3,0.1c-2.5,1-5,1.5-7.5,1.5c-5,0-9.6-2-13-5.7c-3.5-3.9-5.3-9.2-4.8-14.7
		l0.1-0.6l0.1-0.6c0.9-5.1,3.4-9.5,7.2-12.8c-2.2-4.7-3.9-12.5,1.1-22.9c3.1-6.3,13.5-19.4,26.3-19.4c1.3,0,2.7,0.1,3.9,0.4
		c1.5-1.5,3.1-2.8,4.7-4C96.5,78.1,126.6,62,159.1,62c53.6,0,97.2,43.6,97.2,97.2c0,3.9-0.2,7.8-0.7,11.7c0,0,0.1,0,0.1,0
		c0.4,0,0.8,0,1.2,0c0.5,0,1,0,1.5,0.1c2.7-1.7,5.5-2.6,8.4-2.6c3,0,5.9,0.9,8.4,2.7c1.9,1.3,3.4,3,4.4,4.9c1.3,1,2.4,2.1,3.2,3.5
		c2.6,4,3,9.1,0.9,13.6l-0.4,0.8l-0.5,0.7l-0.3,0.5c-0.1,0.2-0.3,0.5-0.4,0.7c-1.8,2.9-4.2,6.9-7.4,10l-0.1,0.1l-0.2,0.2
		c-3.4,3.1-7.4,4.7-11.5,4.7c-1.1,0-2.1-0.1-3.2-0.3c-1.7,0.6-3.4,1-5.2,1c-0.2,0-0.4,0-0.6,0c-2.6,1.9-5.7,3-8.9,3
		c-1.2,0-2.4-0.2-3.6-0.5c-1,0.5-2,0.8-2.9,1.1C220.3,240.9,190.8,256.3,159.1,256.3z"/>
	
		<linearGradient id="SVGID_1_" gradientUnits="userSpaceOnUse" x1="89.8701" y1="224.4229" x2="97.8701" y2="224.4229" gradientTransform="matrix(0.7071 0.7071 -0.7071 0.7071 186.1849 -0.6442)">
		<stop  offset="0" style="stop-color:#D1D3D4"/>
		<stop  offset="0.5" style="stop-color:#FFFFFF"/>
		<stop  offset="1" style="stop-color:#D1D3D4"/>
	</linearGradient>
	<path class="st1" d="M76.1,242.2L76.1,242.2c-1.6-1.6-1.6-4.1,0-5.7l29.8-29.8c1.6-1.6,4.1-1.6,5.7,0l0,0c1.6,1.6,1.6,4.1,0,5.7
		l-29.8,29.8C80.2,243.7,77.7,243.7,76.1,242.2z"/>
	<g>
		<radialGradient id="SVGID_2_" cx="159.1462" cy="159.1465" r="88.176" gradientUnits="userSpaceOnUse">
			<stop  offset="0" style="stop-color:#FF5600"/>
			<stop  offset="0.2403" style="stop-color:#FF5302"/>
			<stop  offset="0.408" style="stop-color:#FF4A09"/>
			<stop  offset="0.5534" style="stop-color:#FF3B15"/>
			<stop  offset="0.5725" style="stop-color:#FF3817"/>
			<stop  offset="0.7547" style="stop-color:#FC3313"/>
			<stop  offset="0.9732" style="stop-color:#F22408"/>
			<stop  offset="1" style="stop-color:#F02206"/>
		</radialGradient>
		<circle class="st2" cx="159.1" cy="159.1" r="88.2"/>
		<g>
			<path class="st3" d="M159.1,75c46.5,0,84.2,37.7,84.2,84.2s-37.7,84.2-84.2,84.2S75,205.6,75,159.1S112.7,75,159.1,75 M159.1,67
				C108.3,67,67,108.3,67,159.1s41.4,92.2,92.2,92.2s92.2-41.4,92.2-92.2S210,67,159.1,67L159.1,67z"/>
		</g>
	</g>
	<g>
		<g>
			<path class="st4" d="M173.5,228.9c-20.3,0-39.8-7.5-54.8-21.2c-26.7-24.4-28.6-66-4.2-92.8c10-11,24.3-17.3,39.3-17.3
				c13.3,0,26,4.9,35.8,13.9c17.6,16,18.8,43.3,2.8,60.9c-6.6,7.3-16.1,11.4-25.9,11.4c-8.8,0-17.2-3.2-23.6-9.2
				c-11.7-10.7-12.5-28.8-1.9-40.5c4.2-4.6,10-7.4,16.3-7.6c0.4,0,0.7,0,1.1,0c5.9,0,11.5,2.2,15.9,6.1c3.8,3.5,6.1,8.3,6.3,13.5
				c0.2,5.2-1.6,10.1-5.1,14c-2.9,3.2-6.9,5-11.2,5.2c-0.3,0-0.5,0-0.8,0c-4,0-7.9-1.5-10.9-4.2c-2.7-2.4-4.2-5.8-4.4-9.4
				c-0.1-3.3,0.9-6.4,2.9-9l4.5,4.1c-2.1,3-1.7,7.3,1.1,9.8c1.9,1.7,4.3,2.7,6.8,2.7c0.2,0,0.3,0,0.5,0c2.7-0.1,5.2-1.3,7-3.3
				c2.4-2.6,3.7-6.1,3.5-9.7c-0.2-3.6-1.7-6.9-4.4-9.3c-3.2-3-7.4-4.6-11.8-4.6c-0.3,0-0.6,0-0.8,0c-4.7,0.2-9,2.2-12.1,5.7
				c-8.4,9.2-7.8,23.6,1.5,32c5.4,4.9,12.3,7.6,19.6,7.6c0.4,0,0.9,0,1.3,0c7.8-0.4,14.9-3.7,20.2-9.4c6.7-7.3,10.1-16.8,9.6-26.7
				c-0.5-9.9-4.7-19-12-25.7c-8.7-7.9-20-12.3-31.7-12.3c-13.2,0-25.9,5.6-34.8,15.3c-22.2,24.3-20.4,62.1,3.9,84.3
				c13.9,12.7,31.9,19.6,50.7,19.6c20.8,0,40.8-8.7,55-23.8l4.4,4C217.6,219.5,196,228.9,173.5,228.9z"/>
			<path class="st5" d="M153.7,98.6c13,0,25.5,4.8,35.1,13.6c17.1,15.6,18.4,42.3,2.7,59.5c-6.4,7-15.6,11.1-25.2,11.1
				c-8.5,0-16.7-3.2-23-8.9c-11.3-10.3-12.1-27.8-1.8-39.1c4.1-4.4,9.6-7,15.6-7.3c0.3,0,0.7,0,1,0c5.6,0,11,2.1,15.2,5.9
				c3.6,3.3,5.8,7.9,6,12.8c0.2,4.9-1.5,9.6-4.8,13.3c-2.7,3-6.5,4.7-10.5,4.9c-0.2,0-0.5,0-0.7,0c-3.8,0-7.4-1.4-10.2-4
				c-2.5-2.2-3.9-5.3-4.1-8.7c-0.1-2.7,0.6-5.2,2-7.4l3,2.7c-1.8,3.4-1.2,7.7,1.7,10.4c2.1,1.9,4.7,2.9,7.5,2.9c0.2,0,0.4,0,0.5,0
				c3-0.1,5.7-1.4,7.7-3.6c2.6-2.8,3.9-6.5,3.8-10.4c-0.2-3.8-1.8-7.4-4.7-10c-3.4-3.1-7.8-4.8-12.5-4.8c-0.3,0-0.6,0-0.9,0
				c-4.9,0.2-9.5,2.4-12.8,6c-8.8,9.6-8.1,24.6,1.5,33.4c5.6,5.1,12.8,7.9,20.3,7.9c0.5,0,0.9,0,1.4,0c8-0.4,15.4-3.8,20.8-9.8
				c6.9-7.5,10.4-17.2,9.9-27.4c-0.5-10.2-4.9-19.6-12.4-26.4c-8.9-8.1-20.4-12.6-32.4-12.6c-13.5,0-26.5,5.7-35.6,15.7
				c-22.5,24.7-20.8,63.2,3.9,85.7c14.1,12.8,32.3,19.9,51.4,19.9c20.8,0,40.7-8.5,55-23.4l3,2.7c-15.1,15.7-36.1,24.7-58,24.7
				c-20.1,0-39.3-7.4-54.1-21c-26.3-24-28.2-65-4.2-91.3C125,104.8,139.1,98.6,153.7,98.6 M153.7,96.6c-14.7,0-29.3,5.9-40,17.6
				c-24.8,27.2-22.8,69.4,4.3,94.2c15.8,14.4,35.6,21.5,55.5,21.5c22.3,0,44.6-9,60.8-26.8l-5.9-5.4c-14.6,16-34.8,24.2-54.9,24.2
				c-17.9,0-35.8-6.4-50.1-19.4c-23.9-21.8-25.6-59-3.8-82.9c9.1-10,21.6-15,34.1-15c11.1,0,22.2,4,31.1,12
				c14.7,13.4,15.8,36.3,2.3,51c-5.1,5.5-12,8.8-19.5,9.1c-0.4,0-0.9,0-1.3,0c-7,0-13.7-2.6-18.9-7.3c-8.8-8.1-9.5-21.8-1.4-30.6
				c3-3.3,7-5.2,11.5-5.4c0.3,0,0.5,0,0.8,0c4.1,0,8,1.5,11.1,4.3c2.5,2.2,3.9,5.3,4,8.6c0.2,3.3-1,6.5-3.2,8.9
				c-1.6,1.8-3.9,2.9-6.3,3c-0.2,0-0.3,0-0.5,0c-2.3,0-4.4-0.8-6.1-2.4c-2.7-2.4-2.8-6.5-0.4-9.2l-5.9-5.4c-5.4,5.9-5,15.1,0.9,20.5
				c3.2,2.9,7.2,4.5,11.5,4.5c0.3,0,0.5,0,0.8,0c4.6-0.2,8.8-2.2,11.9-5.6c3.7-4,5.6-9.3,5.3-14.7c-0.3-5.5-2.6-10.5-6.6-14.2
				c-4.6-4.2-10.4-6.4-16.5-6.4c-0.4,0-0.8,0-1.1,0c-6.5,0.3-12.6,3.1-17,8c-11,12.1-10.2,30.9,1.9,41.9c6.9,6.3,15.6,9.4,24.3,9.4
				c9.8,0,19.6-4,26.7-11.7c16.4-18,15.1-45.9-2.9-62.3C179.8,101.3,166.8,96.6,153.7,96.6L153.7,96.6z"/>
		</g>
	</g>
	<circle class="st6" cx="220" cy="128.8" r="5.3"/>
	<circle class="st6" cx="192.9" cy="204.2" r="2.6"/>
	<circle class="st6" cx="114.1" cy="103.1" r="5.3"/>
	
		<ellipse transform="matrix(0.9828 -0.1848 0.1848 0.9828 -13.9223 28.1571)" class="st6" cx="144.1" cy="88.8" rx="15.4" ry="5.6"/>
	
		<ellipse transform="matrix(0.7335 -0.6797 0.6797 0.7335 -18.9599 168.4804)" class="st6" cx="205.4" cy="108.4" rx="4.8" ry="13.3"/>
	
		<ellipse transform="matrix(0.9639 -0.2663 0.2663 0.9639 -49.9613 53.4732)" class="st6" cx="172.2" cy="210.9" rx="10.7" ry="3.9"/>
	<path class="st7" d="M172.2,233.5c-37.6,0-69.5-24.7-80.3-58.8c-5.3-11-8.2-23.3-8.2-36.3c0-7.6,1-14.9,2.9-21.9
		C79.2,129,75,143.6,75,159.1c0,46.5,37.7,84.2,84.2,84.2c21.9,0,41.8-8.3,56.8-22C203.2,229.1,188.2,233.5,172.2,233.5z"/>
</g>
<g id="font">
	<g>
		<polygon class="st8" points="270.4,206.6 47.9,253.7 47.9,131.4 270.4,84.3 		"/>
		<text transform="matrix(0.9848 -0.208 0 1 47.8956 173.6977)"><tspan x="0" y="0" class="st9 st10 st11">Label</tspan><tspan x="32.9" y="48" class="st9 st10 st11">Manis</tspan><tspan x="168.2" y="72" class="st9 st10 st12">.com</tspan></text>
		<polygon class="st8" points="270.4,206.6 47.9,253.7 47.9,131.4 270.4,84.3 		"/>
		<text transform="matrix(0.9848 -0.208 0 1 47.8956 173.6977)"><tspan x="0" y="0" class="st10 st11">Label</tspan><tspan x="32.9" y="48" class="st10 st11">Manis</tspan><tspan x="168.2" y="72" class="st10 st12">.com</tspan></text>
		<g>
			
				<image style="overflow:visible;opacity:0.22;" width="1018" height="540" xlink:href="B95BE5BF.png"  transform="matrix(0.24 0 0 0.24 38.7487 90.7678)">
			</image>
			<g>
				<path class="st13" d="M52.8,179.4c-3.3,0-6.3-1.3-8.6-3.8c-2.4-2.6-3.6-6.3-3.3-10.1l0-0.3l0.1-0.3c1-5.6,4.6-9.9,9.8-12.1
					c-0.8-0.8-1.6-1.7-2.2-2.7c-1.9-3.1-4.5-9.6,0.2-19.3c2.5-5,11.1-16,20.9-16c2,0,3.9,0.5,5.6,1.4c2.4-2.8,5-5.1,7.7-7
					c3.1-2.1,6.3-3.2,9.3-3.2c5.8,0,11.9,4.2,12.2,13.6l0,0.2c0.1,12.2-7.1,22.7-16.7,29.5c0.1,0,0.2,0,0.4,0c3.2,0,6,1.9,7.3,4.9
					c1.6,3.7,0.6,8.8-2.3,11.9c-4.3,4.6-9.8,6.9-16.4,6.9c-3.7,0-7.2-0.7-10.5-1.5c-2.6,3.2-5.3,5.5-8.3,6.8l-0.2,0.1
					C56.2,179,54.5,179.4,52.8,179.4z"/>
				<path class="st13" d="M94.8,164.9c-5.4,0-9.8-3.3-11.5-8.7c-3.5-10.7,5.9-24.9,16.6-30.9l0.3-0.2c2.6-1.4,6.3-3.4,10.2-3.4
					c0.9,0,1.7,0.1,2.5,0.3c3,0.6,5.8,2.8,7.2,5.7c0.8,1.6,1.1,3.3,1,4.9c1.2,0.6,2.3,1.4,3.1,2.6c1.6,2.2,2,5.1,1.1,7.7l-0.1,0.3
					c-2.1,5.4-4.5,11.1-8.4,15.3c-2.7,3-6.3,4.6-9.9,4.6c0,0,0,0,0,0c-1.4,0-2.7-0.3-3.9-0.8C100.4,164,97.6,164.9,94.8,164.9z"/>
				<path class="st13" d="M113.9,163.3c-2.2,0-4.3-0.8-6-2.1c-2.1-1.7-3.3-4.1-3.3-6.6v-1.1l0.4-1.1c0.2-0.6,0.5-1.3,0.8-2.1
					c0.2-0.5,0.5-1.2,0.6-1.5c4.2-12.5,8.2-23.4,13.5-36.3c1.5-3.7,5.3-6.1,9.6-6.1c3.2,0,6,1.3,7.8,3.7c1.6,2.2,2,5,1.2,7.6
					c-0.2,0.6-0.6,1.9-1.2,3.7c0.6,0.2,1.2,0.5,1.7,0.8l0.2,0.1l0.2,0.1c2.2,1.6,3.4,3.5,4.1,5.7c1.6,0.6,3,1.7,4,3.3
					c1.7,2.7,1.8,6.4,0.2,9.3c-1.7,3.3-5.2,7.8-10.1,10.8c-1.5,2.3-2.9,4.3-4.5,5.8l-0.1,0.1c-3.4,3.2-7.4,5-11.5,5
					c-1,0-1.9-0.1-2.8-0.3C117,162.9,115.5,163.3,113.9,163.3z"/>
				<path class="st13" d="M145.4,155.1c-4.8,0-8.9-2.5-11.3-6.9c-4.9-8.7,0.2-19.3,1.8-22.4c1.3-2.3,8.1-13.5,17.7-13.5
					c4,0,7.7,2,10.3,5.7c0.9,1.2,1.5,2.6,1.8,4c1.8,0.5,3.3,1.7,4.4,3.3c1.7,2.5,2.1,5.9,1,8.6C168.3,141.1,156.7,155.1,145.4,155.1
					z"/>
				<path class="st13" d="M166.1,152.7c-0.2,0-0.3,0-0.5,0c-4.2-0.1-7.7-2.3-9.8-6.2l-0.1-0.1c-2.7-5.1-2.7-11.5,0-19.2
					c2.7-8.5,7.5-19.2,12.1-27.4c0.4-0.8,1.8-3.2,3.8-4.9c1.6-1.4,3.7-2.1,5.8-2.1c3.5,0,7,1.9,8.8,4.8c1.6,2.5,1.7,5.6,0.4,8.2
					l-0.7,1.3c-1.9,3.9-4,8.3-6.1,12.8c1.2,0.6,2.3,1.5,3.1,2.7c1.7,2.3,2.1,5.3,1.1,8c-3.5,10.3-7.5,17.1-11.8,20
					C170.4,152.1,168.3,152.7,166.1,152.7z"/>
				<path class="st13" d="M90.1,216.3c-5.2,0-9.7-2.2-12.8-6.2c-4-5.1-5.1-11.9-3.3-19.5c3-12.3,13.9-25.8,24.8-30.8
					c2.2-1,5.5-2.2,9.1-2.2c4,0,7.4,1.5,9.6,4.2c1.6-3.1,3.3-6.1,5.5-9.1c1.8-2.5,4.6-4,7.5-4c3,0,5.9,1.5,7.7,4.1
					c0.5,0.7,0.9,1.5,1.2,2.3c4.6-4.6,9.6-8.9,14.9-12.7c2-1.5,4-1.8,5.3-1.8c3.1,0,5.9,1.7,7.4,4.7c1.7,3.1,2.1,8.4-0.4,12.1
					c-5.5,8.3-11.8,17.8-15.5,27.6c-0.3,0.9-0.6,1.7-0.9,2.6c1.5-0.8,3-1,4.1-1c3.3,0,6.4,2,7.9,5.3c1.7,3.7,1.7,9.4-1.6,13.2
					c-2.3,2.6-8.3,8.7-15.9,8.7c0,0,0,0,0,0c-3.6,0-6.9-1.4-9.4-4.1l-0.1-0.1c-2.1-2.3-3.4-5-4.2-7.9c-0.4,1.1-0.8,2.1-1.2,3.2
					c-1.2,3.5-4.4,7-8.9,7c-1.9,0-3.7-0.6-5.1-1.8c-1.7-1.3-2.7-2.9-3.4-4.5C106.7,210.8,98.3,216.3,90.1,216.3z"/>
				<path class="st13" d="M158.9,199.4c-5.4,0-9.8-3.3-11.5-8.7c-3.5-10.7,5.9-24.9,16.6-30.9l0.3-0.2c2.6-1.4,6.3-3.4,10.2-3.4
					c0.9,0,1.7,0.1,2.5,0.3c3,0.6,5.8,2.8,7.2,5.7c0.8,1.6,1.1,3.3,1,4.9c1.2,0.6,2.3,1.4,3.1,2.6c1.6,2.2,2,5.1,1.1,7.7l-0.1,0.3
					c-2.1,5.4-4.5,11.1-8.4,15.3c-2.7,3-6.3,4.6-9.9,4.6h0c-1.4,0-2.7-0.3-3.9-0.8C164.5,198.5,161.7,199.4,158.9,199.4z"/>
				<path class="st13" d="M179,197.8c-2.3,0-4.6-0.9-6.4-2.5l-0.2-0.1l-0.1-0.1c-4.5-4.5-2.7-11.1-1.8-13.9l0.1-0.2
					c2.8-8.7,5.5-14,10.1-22.8l0.4-0.8c2.1-4.1,5.8-6.7,9.9-6.7c2.7,0,5.2,1.1,7,2.9c1.8-0.9,3.5-1.4,5.1-1.4c4,0,8.3,2.8,8.6,8.8
					c0,0.7,0,1.3-0.1,2c0.4,0.3,0.8,0.7,1.1,1c3,3.2,2.8,7.8,1.3,11c-1.4,3-3.2,6.6-5.5,10.1c-2.8,4.1-6.4,8.5-11.3,9.4
					c-0.6,0.1-1.3,0.2-1.9,0.2c-2.6,0-5-1.1-6.8-3c-0.2-0.2-0.3-0.3-0.4-0.5c-0.6,1-1.3,2-1.9,2.9
					C184.4,196.4,181.8,197.8,179,197.8z"/>
				<path class="st13" d="M206.2,191c-4.5-0.3-8-3.5-9.4-8.5l-0.1-0.2l0-0.2c-1.9-8.9,2.5-18.2,6.7-26.1l0.1-0.2
					c0.3-0.5,0.6-0.9,0.9-1.3c-0.5-2.7,0.2-5.8,1.9-8.1l0.1-0.1c1.7-2.2,4.8-4.3,7.5-5c0.8-0.2,1.6-0.3,2.4-0.3
					c1.6,0,2.7,0.4,3.3,0.6l0.6,0.2l0.6,0.4c4.6,2.8,5.3,9.1,2.9,13.3c-0.5,0.8-1,1.5-1.5,2.1c0.1,0.8,0.1,1.6,0.1,2.4
					c0.8,0.6,1.5,1.4,2.1,2.4c1.6,2.7,1.6,6.2,0.1,8.9c-0.3,0.5-0.7,1.3-1.1,2.3c-4.2,8.4-8.5,16.1-15.3,17.4l-0.9,0.2L206.2,191z"
					/>
				<path class="st13" d="M212.1,196.4c-3.5,0-6.5-1.3-8.6-3.6c-1.5-1.7-3.2-4.7-2.6-9.6c0.7-5.9,4.5-10.4,8.9-13.8
					c-1.9-3.5-1.8-7.8,0.4-12.8l0.1-0.2c4.6-9.8,15.3-14.8,18.5-16.1c2.2-0.9,4.4-1.4,6.4-1.4c0.9,0,1.8,0.1,2.6,0.3l0.2,0.1
					c3.3,0.9,5.9,3.6,6.7,7.1c0.7,3.1-0.1,6.3-2.2,8.6c1.3,0.6,2.5,1.6,3.3,2.9c1.7,2.6,1.9,6.1,0.5,9c-2.3,5-5.7,7.4-9.3,8.9
					c-2.7,8.1-8.5,15-15.9,18.5l-0.1,0C218.7,195.3,215.5,196.4,212.1,196.4z"/>
				<path class="st13" d="M216.1,212.7c-2.2,0-4.4-0.9-5.9-2.6c-1.5-1.6-2.4-3.8-2.2-6.1l0-0.1c0.2-2.3,1.4-4.8,3.1-6.5
					c1.2-1.2,2.5-1.8,3.3-2.1l0.4-0.2l0.5-0.1c0.5-0.1,1.1-0.2,1.7-0.2c4,0,7.6,3,8.2,7c0.4,3.1-0.9,5.2-1.3,5.9l-0.1,0.1l-0.2,0.3
					l-0.3,0.4c-0.5,0.7-1.7,2.4-4,3.3C218.2,212.5,217.1,212.7,216.1,212.7z"/>
				<path class="st13" d="M222.8,212.8c-3.9,0-7.3-2-9.2-5.6c-2.5-4.4-2.1-10.4,1.1-16.1c3.4-5.9,7.9-9.2,12.8-9.2
					c2,0,4.9,0.5,7.7,3.1c1,0.9,1.7,1.9,2.1,3.1c1,0.6,1.9,1.4,2.6,2.5c1.5,2.3,1.9,5.3,0.9,7.7C238.8,203.5,231,212.8,222.8,212.8
					L222.8,212.8z M222.4,189.5L222.4,189.5z"/>
				<path class="st13" d="M234.6,209.6c-3.1,0-5.9-1.5-7.7-4.2c-4.3-6.1-1.3-14.2,3.7-19.9c1.7-3.3,4.8-6.7,9-7.9l0.2-0.1l0.2,0
					c0.6-0.1,1.3-0.2,1.9-0.2c2.4,0,4.6,0.9,6.2,2.6c1.3,1.3,2.1,3.1,2.5,5.1c1.1,0.7,2,1.7,2.7,2.9c1.5,2.9,1.4,6.4-0.3,9
					c-2,2.9-4.8,5.1-8,6.3C242.5,206.6,238.9,209.6,234.6,209.6z"/>
				<path class="st13" d="M245.1,208.4c-3.2,0-6-1.8-7.4-4.8c-1.8-3.9-0.6-7.8,0-10.1c0.8-3.2,2.2-6.6,4.2-10.3l0.3-0.6
					c0.9-1.7,2.6-4.8,6.3-6l0.3-0.1c0.8-0.2,1.6-0.4,2.4-0.4c1.3,0,2.5,0.3,3.7,0.9c0.7-0.2,1.4-0.2,1.9-0.2c1,0,2,0.2,2.9,0.5
					c1.5-1.3,3.9-3,7-3c1.8,0,3.4,0.5,4.8,1.6c1.7,1.2,2.6,2.6,3.1,4.1c1.2,0.6,2.2,1.5,3,2.7c1.5,2.3,1.7,5.3,0.5,7.9L278,191
					l-0.3,0.4c-0.3,0.4-0.5,0.8-0.8,1.3c-1.7,2.8-3.7,6.2-6.4,8.7l-0.1,0.1c-1.3,1.2-4,3.2-7.5,3.2c-1.3,0-2.5-0.3-3.6-0.8
					c-1.8,1.1-3.4,1.4-4.7,1.4c-0.8,0-1.7-0.1-2.5-0.4C250.4,207.1,247.8,208.4,245.1,208.4L245.1,208.4z M270.8,196.4L270.8,196.4z
					"/>
			</g>
		</g>
		<g>
			
				<image style="overflow:visible;opacity:0.22;" width="994" height="516" xlink:href="B95BE5BD.png"  transform="matrix(0.24 0 0 0.24 41.6287 93.6478)">
			</image>
			<g>
				<path class="st14" d="M52.8,176.4c-2.4,0-4.7-1-6.4-2.8c-1.8-2-2.8-4.9-2.5-7.8l0-0.2l0-0.2c1.1-6.6,6.8-10.9,14.7-11.4
					c-3.2-1-5.9-2.9-7.5-5.5c-2.7-4.4-2.6-10.2,0.4-16.4c2.4-5,10.3-14.3,18.2-14.3c1.8,0,3.4,0.5,4.9,1.4c0.5,0.3,0.9,0.7,1.3,1
					c2.7-3.5,5.7-6.4,8.8-8.6c2.6-1.8,5.2-2.7,7.6-2.7c4.1,0,8.9,2.8,9.2,10.7c0.2,16.2-13.9,29.3-28.2,33.4
					c-0.5,1.1-0.9,2.1-1.4,3.1c1.3,0.3,2.7,0.4,4,0.4c3.2,0,6-1,8.8-3.1c1.1-0.8,2.3-1.2,3.5-1.2c2,0,3.7,1.2,4.5,3.1
					c1.1,2.6,0.4,6.4-1.7,8.7c-3.7,4-8.5,6-14.2,6c-4.1,0-8.1-1-11.7-1.9c-2.6,3.6-5.4,6.1-8.3,7.4l-0.1,0
					C55.4,176.1,54.1,176.4,52.8,176.4z M54.3,166.6L54.3,166.6z M61.7,139.8c0.5,0.2,1.3,0.3,2.7,0.3c0.3,0,0.6,0,1,0
					c0.8-2,1.6-4,2.5-6c-0.2-0.3-0.3-0.6-0.4-0.9c-2.1,1.4-4.5,3.6-5.6,5.9C61.9,139.4,61.8,139.6,61.7,139.8z M87.9,126.1
					c-1.5,1.5-3,3.3-4.5,5.5C85.2,129.9,86.8,128,87.9,126.1z"/>
				<path class="st14" d="M94.8,161.9c-4.1,0-7.4-2.5-8.6-6.6c-3-9,5.6-21.9,15.2-27.4l0.3-0.1c2.4-1.3,5.6-3,8.8-3
					c0.7,0,1.3,0.1,1.9,0.2c2.1,0.4,4.1,2,5.1,4.1c0.9,2,0.9,4.1-0.1,5.9c0,0,0,0,0,0c0.2,0,0.4,0,0.6,0c1.5,0,3,0.8,3.9,2
					c1,1.4,1.3,3.3,0.7,5l-0.1,0.2c-2,5.2-4.3,10.5-7.8,14.4c-2.1,2.3-5,3.7-7.7,3.7c0,0,0,0,0,0c-1.6,0-3-0.5-4.2-1.3
					C100.3,160.8,97.5,161.9,94.8,161.9z"/>
				<path class="st14" d="M113.9,160.3c-1.5,0-3-0.5-4.2-1.5c-1.4-1.1-2.2-2.7-2.2-4.3v-0.6l0.2-0.6c0.2-0.5,0.4-1.2,0.7-1.9
					c0.3-0.6,0.5-1.3,0.7-1.7c4.1-12.4,8.2-23.2,13.4-36.1c1.1-2.6,3.7-4.3,6.8-4.3c2.2,0,4.2,0.9,5.3,2.5c1,1.4,1.3,3.2,0.8,5
					c-0.3,0.9-1.1,3.5-2.4,7c0.2,0,0.5,0,0.7,0c1.2,0,2.4,0.3,3.4,1l0.1,0.1l0.1,0.1c2,1.5,3,3.6,3.3,5.8c1.6,0,3.1,0.9,4,2.3
					c1.1,1.9,1.2,4.4,0.1,6.4c-2,3.9-5.7,7.7-9.6,10c-1.5,2.4-3,4.4-4.4,5.9c-2.8,2.7-6.2,4.2-9.5,4.2c-1.2,0-2.3-0.2-3.3-0.6
					C116.8,159.8,115.3,160.3,113.9,160.3z"/>
				<path class="st14" d="M145.4,152.1c-3.7,0-6.8-1.9-8.7-5.4c-3.3-5.9-1.2-13.9,1.8-19.5c1.1-2,7.1-12,15.1-12
					c2.2,0,5.3,0.8,7.9,4.4c1,1.4,1.6,3.1,1.6,4.9c0.1,0,0.3,0,0.4,0c1.7,0,3.2,0.9,4.2,2.3c1.2,1.8,1.4,4.1,0.7,5.9
					C165.8,139.4,154.8,152.1,145.4,152.1z"/>
				<path class="st14" d="M165.8,149.7c-2.2-0.1-5.3-0.9-7.3-4.7c-2.3-4.4-2.2-10,0.1-16.9c2.7-8.3,7.3-18.8,11.9-26.9
					c0.4-0.8,1.6-2.8,3.2-4.1c1.1-0.9,2.4-1.4,3.9-1.4c2.5,0,5,1.4,6.2,3.4c1,1.7,1.1,3.6,0.3,5.3l-0.7,1.4
					c-2.4,4.9-5.1,10.5-7.7,16.4c0.3,0,0.6-0.1,0.8-0.1c1.6,0,3.2,0.8,4.2,2.2c1.1,1.5,1.4,3.5,0.8,5.2c-2.3,6.7-6,15.4-10.6,18.6
					c-1.5,1-3.1,1.5-4.6,1.5C166,149.7,165.9,149.7,165.8,149.7z"/>
				<path class="st14" d="M90.1,213.3c-4.3,0-7.9-1.7-10.5-5c-3.4-4.4-4.4-10.2-2.7-17c2.8-11.5,13-24.2,23.1-28.8
					c1.9-0.9,4.9-2,7.9-2c3.9,0,7,1.8,8.5,5c0.5,1,0.8,2,0.9,3c0.6-1.2,1.2-2.3,1.9-3.5c1.9-3.6,3.8-7.2,6.2-10.6
					c1.3-1.8,3.1-2.8,5.1-2.8s4,1.1,5.2,2.8c1.2,1.7,1.5,3.7,0.9,5.4l0,0.1l-0.1,0.1c-0.7,1.6-1.4,3.2-2,4.8
					c6.3-7.6,13.5-14.4,21.6-20.2c1.4-1,2.6-1.2,3.5-1.2c2,0,3.8,1.1,4.8,3.1c1.2,2.3,1.5,6.5-0.2,9c-5.6,8.5-12,18.1-15.9,28.2
					c-1.7,4.5-2.4,8.9-2.3,11.4c0.8-0.6,2-1.7,3.7-3.6l0.1-0.1c1.7-1.7,3.3-2.1,4.5-2.1c2.2,0,4.1,1.3,5.1,3.6
					c1.3,2.7,1.3,7.2-1.1,10c-2,2.3-7.3,7.7-13.6,7.7c0,0,0,0,0,0c-2.8,0-5.3-1.1-7.3-3.1c-4.5-4.8-4.7-12.3-4-17.9
					c-2.6,4.6-4.7,9.3-6.4,14.1c-0.8,2.4-3.1,5-6.1,5c-1.2,0-2.3-0.4-3.3-1.2c-2.9-2.4-3.5-5.6-3.4-8.7c-0.7,0.9-1.5,1.8-2.2,2.6
					C107,206.9,98.4,213.3,90.1,213.3z M88.6,197.4c0.2,0.3,0.6,0.9,2.2,0.9c0.7,0,1.5-0.1,2.3-0.3c-1.2-0.5-2.2-1.5-2.8-2.8
					c-0.5-1.2-0.7-2.8-0.4-4.4C88.6,193.4,88.1,195.8,88.6,197.4z M100.5,177.7c-2.9,2.2-6.2,5.5-8.7,9.4
					C95.3,183.8,98.2,180.7,100.5,177.7z"/>
				<path class="st14" d="M158.9,196.4c-4.1,0-7.4-2.5-8.6-6.6c-3-9,5.6-21.9,15.2-27.4l0.3-0.1c2.4-1.3,5.6-3,8.8-3
					c0.7,0,1.3,0.1,1.9,0.2c2.1,0.4,4.1,2,5.1,4.1c0.9,2,0.9,4.1-0.1,5.9c0,0,0,0,0,0c0.2,0,0.4,0,0.6,0c1.5,0,3,0.8,3.9,2
					c1,1.4,1.3,3.3,0.7,5l-0.1,0.2c-2,5.2-4.3,10.5-7.8,14.4c-2.1,2.3-5,3.7-7.7,3.7c0,0,0,0,0,0c-1.6,0-3-0.5-4.2-1.3
					C164.4,195.3,161.6,196.4,158.9,196.4z"/>
				<path class="st14" d="M179,194.8c-1.5,0-3.1-0.6-4.4-1.7l-0.1-0.1l-0.1-0.1c-3.3-3.3-1.8-8.4-1.1-10.9l0-0.1
					c2.7-8.5,5.4-13.7,9.9-22.4l0.4-0.8c2.3-4.5,5.8-5,7.2-5c2.4,0,4.7,1.3,5.9,3.3c0.1,0.2,0.2,0.3,0.3,0.5
					c2.1-1.4,4.2-2.4,5.9-2.4c2.7,0,5.4,1.8,5.6,6c0.1,1.2-0.1,2.3-0.4,3.4c0.9,0.3,1.7,0.8,2.3,1.5c2,2.2,1.8,5.5,0.8,7.6
					c-1.3,2.9-3,6.3-5.3,9.7c-2.3,3.4-5.5,7.4-9.4,8.2c-0.5,0.1-0.9,0.1-1.3,0.1c-1.7,0-3.4-0.7-4.5-2c-1.4-1.6-1.9-3.6-2-5.1
					c-0.3,0.5-0.6,1-0.9,1.5c-1.4,2.2-2.8,4.4-4.1,6.3C182.5,193.9,180.8,194.8,179,194.8z"/>
				<path class="st14" d="M206.4,188c-3.2-0.2-5.7-2.6-6.7-6.2l-0.1-0.2c-1.7-7.9,2.4-16.6,6.4-24.1l0.1-0.1c0.4-0.8,1-1.4,1.7-2
					c0,0,0-0.1-0.1-0.1c-0.8-2.2-0.4-5.1,1-7c1.3-1.7,3.9-3.5,6-4c0.5-0.2,1.1-0.2,1.6-0.2c1,0,1.8,0.3,2.2,0.5l0.4,0.1l0.4,0.2
					c3.1,1.9,3.5,6.4,1.9,9.2c-0.7,1.2-1.5,2-2.3,2.5c0.7,1.4,0.7,3.2,0,5c1.2,0.3,2.3,1.1,2.9,2.3c1,1.8,1.1,4.1,0,5.9
					c-0.3,0.6-0.7,1.4-1.2,2.4c-3.8,7.7-7.7,14.7-13.2,15.8l-0.5,0.1L206.4,188z"/>
				<path class="st14" d="M212.1,193.4c-3.4,0-5.3-1.4-6.4-2.6c-1.1-1.2-2.3-3.5-1.8-7.2c0.8-5.9,5.4-10.4,10.2-13.5
					c-0.5-0.5-1-1-1.4-1.7c-1.7-2.7-1.6-6.2,0.3-10.5l0.1-0.1c3.3-7,10.9-12.1,16.9-14.6c1.9-0.8,3.6-1.2,5.2-1.2
					c0.7,0,1.3,0.1,1.9,0.2l0.1,0c2.2,0.6,4,2.5,4.5,4.9c0.6,2.5-0.3,4.9-2.2,6.6l-0.4,0.3l-0.4,0.2c-1.1,0.6-2.5,1.2-4.2,1.9
					c-2.5,1.1-5.9,2.5-7.7,3.7c1.6,0.3,3.8,0.9,5.6,2.4c0.7-0.5,1.4-1.1,1.7-1.7c1.5-2.8,3.7-3.3,4.8-3.3c1.7,0,3.2,0.9,4.1,2.3
					c1.1,1.8,1.3,4.1,0.3,6.1c-2.3,4.9-5.6,6.7-9,7.8c-2.2,7.9-7.7,14.7-14.8,18C217.8,192.4,214.9,193.4,212.1,193.4z M224.6,159.3
					L224.6,159.3z"/>
				<path class="st14" d="M216.1,209.7c-1.4,0-2.8-0.6-3.7-1.6c-1-1-1.5-2.4-1.4-3.8c0.1-1.4,0.9-3.4,2.2-4.6
					c0.8-0.8,1.6-1.1,2.2-1.4l0.3-0.1l0.3-0.1c0.3-0.1,0.7-0.1,1-0.1c2.5,0,4.8,2,5.2,4.5c0.3,2-0.5,3.3-0.9,3.9l-0.1,0.2l-0.1,0.2
					l-0.2,0.3c-0.4,0.6-1.2,1.7-2.7,2.3C217.4,209.6,216.8,209.7,216.1,209.7z"/>
				<path class="st14" d="M222.8,209.8c-2.8,0-5.2-1.5-6.6-4c-2.3-4.1-0.9-9.5,1.1-13.2c2.7-4.9,6.4-7.6,10.2-7.6
					c1.4,0,3.6,0.4,5.7,2.4c0.9,0.8,1.4,1.9,1.7,3.1c1,0.3,2,1,2.6,1.9c1,1.5,1.2,3.5,0.6,5C236.4,201.5,229.5,209.8,222.8,209.8
					C222.8,209.8,222.8,209.8,222.8,209.8z"/>
				<path class="st14" d="M234.6,206.6c-2.1,0-3.9-1-5.2-2.9c-3.4-4.8-0.7-11.7,3.7-16.5c1.3-2.7,3.9-5.8,7.3-6.7l0.2-0.1
					c0.4-0.1,0.9-0.1,1.3-0.1c1.5,0,3,0.6,4,1.7c1.1,1.2,1.8,2.9,1.9,5.1c1.2,0.3,2.2,1.2,2.8,2.4c0.8,1.6,1.1,4-0.1,5.9
					c-1.8,2.7-4.4,4.6-7.3,5.3C241,203.7,238.1,206.6,234.6,206.6z"/>
				<path class="st14" d="M245.1,205.4c-2,0-3.8-1.2-4.7-3c-1.3-2.9-0.4-5.8,0.2-7.9c0.8-3,2.1-6.2,4-9.8c0,0,0.2-0.4,0.3-0.6
					c0.8-1.5,2.1-3.8,4.7-4.7l0.2-0.1c0.5-0.2,1-0.2,1.6-0.2c1.2,0,2.3,0.4,3.2,1.1c0.8-0.3,1.5-0.5,2.3-0.5c1.2,0,2.4,0.4,3.4,1.2
					c0.4-0.4,0.8-0.8,1.2-1.2c1.2-1.1,3.1-2.5,5.3-2.5c1.1,0,2.2,0.3,3.1,1c1.5,1.1,2.1,2.5,2.3,4c1.2,0.2,2.3,0.9,3,2
					c0.9,1.4,1,3.3,0.3,5.1l-0.1,0.2l-0.1,0.2c-0.3,0.4-0.5,0.9-0.8,1.3c-1.6,2.6-3.5,5.8-5.9,8.1c-1.1,1-3.1,2.5-5.5,2.5
					c-1.5,0-2.8-0.6-3.8-1.6c-1.4,1.5-2.9,2.2-4.6,2.2c-0.9,0-1.8-0.2-2.6-0.7c-0.3-0.1-0.6-0.4-0.9-0.6c-0.2,0.3-0.3,0.5-0.4,0.8
					C249.6,204,247.3,205.4,245.1,205.4z"/>
			</g>
		</g>
		<g>
			<g class="st15">
				<polygon class="st8" points="270.9,207.1 48.4,254.2 48.4,131.9 270.9,84.8 				"/>
				<text transform="matrix(0.9848 -0.208 0 1 48.3956 174.1977)"><tspan x="0" y="0" class="st16 st10 st11">Label</tspan><tspan x="32.9" y="48" class="st16 st10 st11">Manis</tspan><tspan x="168.2" y="72" class="st16 st10 st12">.com</tspan></text>
				<polygon class="st8" points="271.4,207.6 48.9,254.7 48.9,132.4 271.4,85.3 				"/>
				<text transform="matrix(0.9848 -0.208 0 1 48.8956 174.6977)"><tspan x="0" y="0" class="st16 st10 st11">Label</tspan><tspan x="32.9" y="48" class="st16 st10 st11">Manis</tspan><tspan x="168.2" y="72" class="st16 st10 st12">.com</tspan></text>
			</g>
			<g>
				<g>
					<polygon class="st8" points="269.9,206.1 47.4,253.2 47.4,130.9 269.9,83.8 					"/>
					<text transform="matrix(0.9848 -0.208 0 1 47.3956 173.1977)"><tspan x="0" y="0" class="st13 st10 st11">Label</tspan><tspan x="32.9" y="48" class="st13 st10 st11">Manis</tspan><tspan x="168.2" y="72" class="st13 st10 st12">.com</tspan></text>
				</g>
				<polygon class="st8" points="270.4,206.6 47.9,253.7 47.9,131.4 270.4,84.3 				"/>
				<text transform="matrix(0.9848 -0.208 0 1 47.8956 173.6977)"><tspan x="0" y="0" class="st13 st10 st11">Label</tspan><tspan x="32.9" y="48" class="st13 st10 st11">Manis</tspan><tspan x="168.2" y="72" class="st13 st10 st12">.com</tspan></text>
			</g>
		</g>
	</g>
</g>
</svg>
